<svg xmlns="http://www.w3.org/2000/svg" xmlns:xlink="http://www.w3.org/1999/xlink" version="1.1" x="0px" y="0px" viewBox="0 0 54.691 68.36375000000001" enable-background="new 0 0 54.691 54.691" xml:space="preserve"><g><path d="M-4318.56-68.404c-43.25,0-78.438,35.186-78.438,78.435c0,43.252,35.188,78.438,78.438,78.438s78.436-35.188,78.436-78.438   C-4240.124-33.218-4275.31-68.404-4318.56-68.404z M-4318.867-35.187c13.682,0,24.771,11.092,24.771,24.771   c0,13.682-11.092,24.771-24.771,24.771c-13.683,0-24.771-11.092-24.771-24.771C-4343.639-24.095-4332.55-35.187-4318.867-35.187z    M-4274.686,65.074c-12.042,9.627-27.292,15.396-43.874,15.396c-16.562,0-31.797-5.75-43.834-15.354   c1.116-19.851,14.187-39.903,30.178-39.903h27.332c16.024,0,29.128,19.324,30.197,39.206c0.001,0.002,0.001,0.004,0.001,0.006   S-4274.686,64.786-4274.686,65.074z"/></g><g><rect x="22.545" y="15.177" transform="matrix(0.7444 0.6677 -0.6677 0.7444 25.2784 -10.8496)" width="8.532" height="24.835"/><polyline points="13.08,42.904 20.579,40.933 14.227,35.236 13.08,42.904  "/><rect x="33.149" y="14.245" transform="matrix(0.7445 0.6677 -0.6677 0.7445 20.0919 -20.9498)" width="8.532" height="3.057"/></g><text x="0" y="69.691" fill="#000000" font-size="5px" font-weight="bold" font-family="'Helvetica Neue', Helvetica, Arial-Unicode, Arial, Sans-serif">Created by Nicolas Morand</text><text x="0" y="74.691" fill="#000000" font-size="5px" font-weight="bold" font-family="'Helvetica Neue', Helvetica, Arial-Unicode, Arial, Sans-serif">from the Noun Project</text></svg>