<svg xmlns="http://www.w3.org/2000/svg" xmlns:xlink="http://www.w3.org/1999/xlink" version="1.1" x="0px" y="0px" viewBox="0 0 100 125" style="enable-background:new 0 0 100 100;" xml:space="preserve"><g style="enable-background:new    ;"><g><g><rect x="5" y="38" width="4" height="8"/></g></g></g><g style="enable-background:new    ;"><g><g><rect x="14" y="38" width="20" height="4"/></g></g></g><g style="enable-background:new    ;"><g><g><rect x="26" y="42" width="12" height="4"/></g></g></g><g style="enable-background:new    ;"><g><g><rect x="22" y="46" width="16" height="4"/></g></g></g><g style="enable-background:new    ;"><g><g><rect x="30" y="50" width="4" height="4"/></g></g></g><g style="enable-background:new    ;"><g><g><rect x="9" y="46" width="4" height="13"/></g></g></g><g style="enable-background:new    ;"><g><g><rect x="13" y="50" width="4" height="9"/></g></g></g><g style="enable-background:new    ;"><g><g><rect x="17" y="50" width="4" height="4"/></g></g></g><g style="enable-background:new    ;"><g><g><rect x="5" y="59" width="4" height="8"/></g></g></g><g style="enable-background:new    ;"><g><g><rect x="9" y="63" width="8" height="4"/></g></g></g><g style="enable-background:new    ;"><g><g><rect x="18" y="30" width="20" height="4"/></g></g></g><g style="enable-background:new    ;"><g><g><rect x="26" y="34" width="4" height="4"/></g></g></g><g style="enable-background:new    ;"><g><g><rect x="34" y="34" width="4" height="4"/></g></g></g><g style="enable-background:new    ;"><g><g><rect x="34" y="26" width="8" height="4"/></g></g></g><g style="enable-background:new    ;"><g><g><rect x="38" y="22" width="4" height="4"/></g></g></g><g style="enable-background:new    ;"><g><g><rect x="22" y="26" width="4" height="4"/></g></g></g><g style="enable-background:new    ;"><g><g><rect x="26" y="18" width="4" height="8"/></g></g></g><g style="enable-background:new    ;"><g><g><rect x="30" y="13" width="4" height="8"/></g></g></g><g style="enable-background:new    ;"><g><g><rect x="30" y="5" width="8" height="4"/></g></g></g><g style="enable-background:new    ;"><g><g><rect x="34" y="9" width="12" height="4"/></g></g></g><g style="enable-background:new    ;"><g><g><rect x="42" y="5" width="8" height="4"/></g></g></g><g style="enable-background:new    ;"><g><g><rect x="38" y="13" width="8" height="4"/></g></g></g><g style="enable-background:new    ;"><g><g><rect x="55" y="5" width="12" height="4"/></g></g></g><g style="enable-background:new    ;"><g><g><rect x="59" y="9" width="8" height="4"/></g></g></g><g style="enable-background:new    ;"><g><g><rect x="55" y="13" width="7" height="4"/></g></g></g><g style="enable-background:new    ;"><g><g><rect x="55" y="17" width="4" height="4"/></g></g></g><g style="enable-background:new    ;"><g><g><rect x="63" y="18" width="4" height="7"/></g></g></g><g style="enable-background:new    ;"><g><g><rect x="46" y="18" width="4" height="7"/></g></g></g><g style="enable-background:new    ;"><g><g><rect x="50" y="22" width="4" height="20"/></g></g></g><g style="enable-background:new    ;"><g><g><rect x="43" y="30" width="7" height="4"/></g></g></g><g style="enable-background:new    ;"><g><g><rect x="43" y="34" width="4" height="8"/></g></g></g><g style="enable-background:new    ;"><g><g><rect x="59" y="26" width="4" height="8"/></g></g></g><g style="enable-background:new    ;"><g><g><rect x="63" y="30" width="8" height="4"/></g></g></g><g style="enable-background:new    ;"><g><g><rect x="63" y="34" width="4" height="8"/></g></g></g><g style="enable-background:new    ;"><g><g><rect x="54" y="38" width="9" height="4"/></g></g></g><g style="enable-background:new    ;"><g><g><rect x="55" y="42" width="8" height="8"/></g></g></g><g style="enable-background:new    ;"><g><g><rect x="59" y="50" width="4" height="13"/></g></g></g><g style="enable-background:new    ;"><g><g><rect x="63" y="46" width="4" height="8"/></g></g></g><g style="enable-background:new    ;"><g><g><rect x="67" y="51" width="4" height="12"/></g></g></g><g style="enable-background:new    ;"><g><g><rect x="71" y="55" width="4" height="4"/></g></g></g><g style="enable-background:new    ;"><g><g><path d="M71,5v24h24V5H71z M91,25H75V9h16V25z"/></g></g></g><g style="enable-background:new    ;"><g><g><rect x="79" y="13" width="8" height="8"/></g></g></g><g style="enable-background:new    ;"><g><g><path d="M71,71v24h24V71H71z M91,91H75V75h16V91z"/></g></g></g><g style="enable-background:new    ;"><g><g><rect x="79" y="79" width="8" height="8"/></g></g></g><g style="enable-background:new    ;"><g><g><path d="M5,71v24h24V71H5z M25,91H9V75h16V91z"/></g></g></g><g style="enable-background:new    ;"><g><g><rect x="13" y="79" width="8" height="8"/></g></g></g><g style="enable-background:new    ;"><g><g><rect x="22" y="63" width="16" height="4"/></g></g></g><g style="enable-background:new    ;"><g><g><rect x="30" y="67" width="8" height="4"/></g></g></g><g style="enable-background:new    ;"><g><g><rect x="25" y="55" width="4" height="8"/></g></g></g><g style="enable-background:new    ;"><g><g><rect x="29" y="59" width="5" height="4"/></g></g></g><g style="enable-background:new    ;"><g><g><rect x="34" y="55" width="4" height="8"/></g></g></g><g style="enable-background:new    ;"><g><g><rect x="38" y="59" width="4" height="4"/></g></g></g><g style="enable-background:new    ;"><g><g><rect x="38" y="51" width="12" height="4"/></g></g></g><g style="enable-background:new    ;"><g><g><rect x="42" y="46" width="4" height="5"/></g></g></g><g style="enable-background:new    ;"><g><g><rect x="34" y="75" width="4" height="13"/></g></g></g><g style="enable-background:new    ;"><g><g><rect x="38" y="75" width="4" height="4"/></g></g></g><g style="enable-background:new    ;"><g><g><rect x="42" y="63" width="4" height="12"/></g></g></g><g style="enable-background:new    ;"><g><g><rect x="46" y="59" width="4" height="8"/></g></g></g><g style="enable-background:new    ;"><g><g><rect x="50" y="55" width="4" height="16"/></g></g></g><g style="enable-background:new    ;"><g><g><rect x="54" y="67" width="4" height="4"/></g></g></g><g style="enable-background:new    ;"><g><g><rect x="55" y="71" width="8" height="4"/></g></g></g><g style="enable-background:new    ;"><g><g><rect x="47" y="75" width="11" height="4"/></g></g></g><g style="enable-background:new    ;"><g><g><rect x="47" y="79" width="7" height="4"/></g></g></g><g style="enable-background:new    ;"><g><g><rect x="47" y="83" width="4" height="12"/></g></g></g><g style="enable-background:new    ;"><g><g><rect x="39" y="88" width="8" height="4"/></g></g></g><g style="enable-background:new    ;"><g><g><rect x="43" y="92" width="4" height="3"/></g></g></g><g style="enable-background:new    ;"><g><g><rect x="34" y="92" width="4" height="3"/></g></g></g><g style="enable-background:new    ;"><g><g><rect x="55" y="84" width="3" height="3"/></g></g></g><g style="enable-background:new    ;"><g><g><rect x="59" y="88" width="4" height="4"/></g></g></g><g style="enable-background:new    ;"><g><g><rect x="55" y="92" width="12" height="3"/></g></g></g><g style="enable-background:new    ;"><g><g><rect x="63" y="63" width="4" height="25"/></g></g></g><g style="enable-background:new    ;"><g><g><rect x="67" y="63" width="8" height="4"/></g></g></g><g style="enable-background:new    ;"><g><g><rect x="71" y="34" width="24" height="4"/></g></g></g><g style="enable-background:new    ;"><g><g><rect x="71" y="38" width="12" height="4"/></g></g></g><g style="enable-background:new    ;"><g><g><rect x="76" y="42" width="7" height="4"/></g></g></g><g style="enable-background:new    ;"><g><g><rect x="71" y="46" width="8" height="4"/></g></g></g><g style="enable-background:new    ;"><g><g><rect x="76" y="50" width="7" height="4"/></g></g></g><g style="enable-background:new    ;"><g><g><rect x="91" y="38" width="4" height="8"/></g></g></g><g style="enable-background:new    ;"><g><g><rect x="87" y="43" width="4" height="7"/></g></g></g><g style="enable-background:new    ;"><g><g><rect x="91" y="51" width="4" height="16"/></g></g></g><g style="enable-background:new    ;"><g><g><rect x="87" y="55" width="4" height="7"/></g></g></g><g style="enable-background:new    ;"><g><g><rect x="79" y="59" width="4" height="8"/></g></g></g><g style="enable-background:new    ;"><g><g><rect x="83" y="63" width="4" height="4"/></g></g></g><g style="enable-background:new    ;"><g><g><rect x="5" y="5" width="4" height="12"/></g></g></g><g style="enable-background:new    ;"><g><g><rect x="18" y="5" width="4" height="16"/></g></g></g><g style="enable-background:new    ;"><g><g><rect x="22" y="5" width="3" height="4"/></g></g></g><g style="enable-background:new    ;"><g><g><rect x="14" y="5" width="4" height="8"/></g></g></g><g style="enable-background:new    ;"><g><g><rect x="5" y="30" width="5" height="4"/></g></g></g><g style="enable-background:new    ;"><g><g><rect x="10" y="22" width="4" height="16"/></g></g></g><g style="enable-background:new    ;"><g><g><rect x="14" y="22" width="3" height="4"/></g></g></g><text x="0" y="115" fill="#000000" font-size="5px" font-weight="bold" font-family="'Helvetica Neue', Helvetica, Arial-Unicode, Arial, Sans-serif">Created by Rabee Balakrishnan</text><text x="0" y="120" fill="#000000" font-size="5px" font-weight="bold" font-family="'Helvetica Neue', Helvetica, Arial-Unicode, Arial, Sans-serif">from the Noun Project</text></svg>