<?xml version="1.0" encoding="utf-8"?>
<!-- Generator: Adobe Illustrator 16.0.0, SVG Export Plug-In . SVG Version: 6.00 Build 0)  -->
<!DOCTYPE svg PUBLIC "-//W3C//DTD SVG 1.1//EN" "http://www.w3.org/Graphics/SVG/1.1/DTD/svg11.dtd">
<svg version="1.1" id="Layer_1" xmlns="http://www.w3.org/2000/svg" xmlns:xlink="http://www.w3.org/1999/xlink" x="0px" y="0px"
	 width="13.634px" height="13.2px" viewBox="0 0 13.634 13.2" enable-background="new 0 0 13.634 13.2" xml:space="preserve">
<g>
	<g>
		<path fill="#010101" d="M4.597,13.199c0.479,0,0.949-0.061,1.418-0.162c0.578-0.127,1.137-0.318,1.679-0.557
			c0.904-0.398,1.737-0.914,2.508-1.531c0.97-0.775,1.804-1.674,2.448-2.738c0.459-0.757,0.797-1.561,0.931-2.442
			c0.062-0.399,0.072-0.798,0.019-1.199c-0.05-0.356-0.142-0.698-0.309-1.018c-0.328-0.626-0.662-1.249-0.998-1.872
			c-0.308-0.575-0.764-0.999-1.351-1.283c-0.407-0.197-0.837-0.307-1.285-0.36C9.278-0.01,8.898-0.01,8.521,0.021
			C8.155,0.053,7.792,0.117,7.435,0.205c-0.68,0.17-1.33,0.42-1.954,0.732C4.656,1.352,3.892,1.858,3.189,2.453
			C2.284,3.221,1.501,4.096,0.902,5.126C0.433,5.938,0.094,6.794,0.016,7.738C-0.01,8.051-0.007,8.364,0.042,8.674
			c0.06,0.385,0.179,0.75,0.366,1.096c0.301,0.551,0.59,1.106,0.877,1.664c0.385,0.748,0.986,1.242,1.771,1.521
			C3.554,13.133,4.07,13.2,4.597,13.199z"/>
		<path fill="#FFFFFF" d="M4.597,13.199C4.07,13.2,3.554,13.133,3.056,12.955c-0.784-0.279-1.386-0.773-1.771-1.521
			C1,10.875,0.709,10.32,0.409,9.77C0.221,9.424,0.102,9.059,0.042,8.674c-0.05-0.31-0.053-0.623-0.026-0.936
			c0.078-0.945,0.417-1.801,0.886-2.612c0.6-1.03,1.382-1.905,2.287-2.673c0.703-0.596,1.467-1.102,2.292-1.516
			c0.624-0.312,1.274-0.562,1.954-0.732c0.357-0.09,0.72-0.152,1.086-0.184C8.898-0.01,9.278-0.01,9.657,0.036
			c0.448,0.054,0.878,0.163,1.285,0.36c0.587,0.284,1.043,0.708,1.351,1.283c0.336,0.623,0.67,1.246,0.998,1.872
			c0.167,0.319,0.259,0.661,0.309,1.018c0.054,0.401,0.043,0.8-0.019,1.199c-0.134,0.882-0.472,1.686-0.931,2.442
			c-0.645,1.064-1.479,1.963-2.448,2.738c-0.771,0.617-1.604,1.133-2.508,1.531c-0.542,0.238-1.101,0.43-1.679,0.557
			C5.546,13.139,5.077,13.199,4.597,13.199z M2.677,12.434c0.011,0.006,0.02,0.011,0.029,0.016c0.011,0.008,0.02,0.018,0.031,0.023
			c0.357,0.188,0.741,0.285,1.141,0.322c0.158,0.015,0.32,0.004,0.478,0.022c0.386,0.048,0.769,0.033,1.153-0.007
			c0.059-0.006,0.115-0.023,0.174-0.037c0.031,0,0.063,0,0.096,0c0.032-0.006,0.064-0.01,0.098-0.018
			c0.309-0.079,0.62-0.156,0.929-0.24c0.091-0.024,0.176-0.066,0.264-0.102c0.059-0.018,0.118-0.037,0.177-0.055
			c0.191-0.084,0.387-0.16,0.576-0.252c0.203-0.1,0.4-0.214,0.6-0.321c0.062-0.034,0.123-0.07,0.185-0.106
			c0.033-0.016,0.069-0.028,0.103-0.047c0.445-0.273,0.879-0.566,1.278-0.906c0.039-0.035,0.077-0.07,0.118-0.105
			c0.055-0.041,0.111-0.079,0.162-0.124c0.367-0.318,0.719-0.653,1.035-1.022c0.055-0.064,0.111-0.128,0.167-0.191
			c0.119-0.146,0.243-0.287,0.357-0.438c0.258-0.34,0.503-0.689,0.695-1.072c0.048-0.087,0.095-0.174,0.142-0.261
			c0.02-0.032,0.041-0.063,0.056-0.099c0.116-0.279,0.239-0.557,0.343-0.842c0.053-0.146,0.126-0.295,0.098-0.464
			c-0.024-0.144-0.029-0.29-0.056-0.435c-0.091-0.518-0.297-0.99-0.597-1.422c-0.007-0.01-0.01-0.023-0.014-0.035
			c-0.06,0.327-0.126,0.634-0.259,0.922c-0.106,0.23-0.214,0.461-0.32,0.691c-0.013,0.023-0.024,0.047-0.036,0.07
			c-0.087,0.147-0.168,0.297-0.262,0.439c-0.199,0.306-0.407,0.607-0.61,0.91c-0.015,0.023-0.031,0.045-0.047,0.066
			c-0.021,0.025-0.045,0.049-0.064,0.075c-0.328,0.418-0.683,0.811-1.065,1.18c-0.045,0.045-0.086,0.093-0.131,0.14l0.003-0.002
			c-0.026,0.02-0.054,0.037-0.079,0.059C9.429,8.931,9.242,9.1,9.044,9.258C8.832,9.43,8.609,9.59,8.39,9.756
			C8.377,9.767,8.365,9.777,8.353,9.788C8.328,9.801,8.301,9.812,8.277,9.826c-0.357,0.213-0.717,0.425-1.074,0.637
			c-0.08,0.047-0.16,0.093-0.24,0.139c-0.019,0.005-0.035,0.01-0.055,0.016c-0.029,0.012-0.058,0.023-0.086,0.035
			c-0.349,0.139-0.697,0.279-1.046,0.419c-0.075,0.03-0.149,0.06-0.224,0.089c-0.015,0.001-0.028,0.002-0.043,0.003
			c-0.064,0.017-0.132,0.034-0.198,0.049c-0.305,0.064-0.607,0.13-0.912,0.192c-0.1,0.021-0.199,0.035-0.299,0.052l0.001-0.001
			c-0.229,0.014-0.456,0.029-0.683,0.039c-0.257,0.01-0.509-0.018-0.755-0.089c-0.016,0.001-0.03,0.003-0.046,0.004
			c-0.011-0.007-0.022-0.015-0.034-0.019c-0.314-0.113-0.628-0.225-0.942-0.336c-0.066-0.025-0.134-0.051-0.205-0.076
			c0,0.02,0,0.026,0.001,0.032c0.115,0.29,0.264,0.562,0.466,0.8C2.121,12.068,2.369,12.289,2.677,12.434z M0.285,8.137
			c0.001,0.361,0.067,0.748,0.213,1.119c0.203,0.514,0.507,0.955,0.942,1.298c0.523,0.413,1.128,0.589,1.786,0.606
			c0.398,0.012,0.793-0.036,1.184-0.109c0.484-0.09,0.955-0.228,1.414-0.404c1.404-0.54,2.645-1.342,3.744-2.365
			c0.898-0.835,1.652-1.781,2.186-2.893c0.272-0.57,0.478-1.16,0.538-1.795c0.039-0.411,0.015-0.814-0.096-1.213
			c-0.173-0.621-0.521-1.114-1.055-1.477C10.549,0.502,9.888,0.32,9.181,0.3C8.675,0.285,8.175,0.35,7.685,0.462
			C7.047,0.608,6.437,0.833,5.851,1.121C4.53,1.768,3.384,2.647,2.4,3.738C1.667,4.546,1.066,5.439,0.646,6.449
			C0.427,6.979,0.289,7.524,0.285,8.137z M13.355,5.65c0.055-0.232,0.056-0.484,0.034-0.736c-0.031-0.328-0.117-0.645-0.241-0.949
			C13.004,3.611,12.85,3.264,12.7,2.913c-0.019-0.046-0.038-0.091-0.058-0.137c-0.009,0.001-0.017,0.001-0.023,0.002
			c-0.038,0.411-0.076,0.821-0.111,1.218c0.025,0,0.045-0.006,0.057,0.002c0.018,0.012,0.032,0.029,0.047,0.047
			c0.216,0.268,0.393,0.56,0.513,0.881C13.212,5.168,13.283,5.418,13.355,5.65z"/>
		<path fill="#E6E7E8" d="M0.285,8.137c0.004-0.612,0.143-1.158,0.361-1.688c0.42-1.01,1.021-1.903,1.754-2.711
			c0.984-1.091,2.13-1.971,3.451-2.617c0.586-0.288,1.196-0.513,1.834-0.659C8.175,0.35,8.675,0.285,9.181,0.3
			c0.707,0.021,1.368,0.202,1.96,0.604c0.534,0.362,0.882,0.855,1.055,1.477c0.11,0.398,0.135,0.802,0.096,1.213
			c-0.061,0.635-0.266,1.225-0.538,1.795C11.22,6.5,10.466,7.446,9.568,8.281c-1.1,1.023-2.34,1.825-3.744,2.365
			c-0.459,0.177-0.932,0.314-1.414,0.404c-0.391,0.073-0.785,0.121-1.184,0.109c-0.658-0.018-1.263-0.193-1.786-0.606
			C1.004,10.211,0.701,9.77,0.498,9.256C0.352,8.885,0.286,8.498,0.285,8.137z M8.412,7.969C8.406,7.961,8.401,7.952,8.394,7.944
			C7.096,7.935,5.798,7.925,4.5,7.915C4.499,7.907,4.495,7.9,4.493,7.893c0.065-0.067,0.129-0.139,0.198-0.201
			C4.718,7.667,4.76,7.648,4.794,7.648c0.244-0.003,0.489-0.002,0.733,0c0.989,0.007,1.979,0.014,2.969,0.022
			C8.567,7.672,8.61,7.655,8.65,7.588c0.206-0.355,0.364-0.73,0.499-1.117c0.017-0.046,0.026-0.094,0.045-0.152
			c-1.142,0.091-2.271,0.18-3.399,0.27C5.792,6.58,5.79,6.572,5.787,6.566C5.862,6.49,5.931,6.411,6.011,6.34
			c0.026-0.025,0.07-0.045,0.108-0.049c0.342-0.029,0.686-0.056,1.027-0.082c0.432-0.034,0.862-0.068,1.294-0.104
			c0.258-0.021,0.518-0.041,0.776-0.061c0.048-0.004,0.073-0.023,0.084-0.074c0.082-0.402,0.167-0.803,0.247-1.205
			c0.019-0.09,0.023-0.182,0.037-0.279c-0.637,0.05-1.262,0.1-1.888,0.148C7.695,4.629,7.693,4.621,7.69,4.614
			c0.073-0.077,0.147-0.156,0.226-0.229C7.94,4.361,7.979,4.341,8.012,4.338C8.34,4.31,8.667,4.285,8.995,4.26
			C9.182,4.246,9.371,4.23,9.558,4.215c0.04-0.003,0.062-0.016,0.064-0.063c0.026-0.472,0.059-0.942,0.08-1.415
			c0.01-0.17-0.005-0.342-0.006-0.512c0-0.064-0.021-0.1-0.092-0.096c-0.091,0.004-0.184,0-0.273,0.002
			c-0.1,0.002-0.154,0.066-0.205,0.145C9.051,2.393,8.975,2.512,8.877,2.61C8.681,2.812,8.467,3,8.261,3.196
			c-0.057,0.054-0.1,0.124-0.155,0.18C7.901,3.58,7.694,3.78,7.488,3.982C7.294,4.171,7.096,4.355,6.91,4.55
			C6.664,4.805,6.428,5.07,6.184,5.327c-0.152,0.161-0.312,0.315-0.472,0.47C5.605,5.902,5.525,6.029,5.427,6.142
			C5.205,6.396,4.955,6.629,4.716,6.869c-0.01,0.01-0.021,0.016-0.032,0.023c-0.097,0.076-0.199,0.146-0.29,0.229
			C4.264,7.24,4.141,7.369,4.017,7.494c-0.35,0.354-0.699,0.707-1.049,1.061c-0.09,0.092-0.115,0.203-0.077,0.326
			c0.048,0.152,0.179,0.22,0.333,0.171C3.252,9.043,3.283,9.041,3.31,9.031C3.347,9.018,3.391,9.007,3.418,8.98
			c0.175-0.172,0.345-0.348,0.519-0.519c0.109-0.11,0.066-0.11,0.208-0.025c0.178,0.105,0.348,0.226,0.532,0.312
			c0.325,0.15,0.672,0.245,1.025,0.303c0.333,0.055,0.666,0.062,1,0.005c0.505-0.088,0.944-0.312,1.314-0.667
			C8.158,8.258,8.282,8.109,8.412,7.969z M4.292,6.697c0.026-0.033,0.05-0.05,0.057-0.071c0.041-0.14,0.16-0.218,0.267-0.286
			c0.122-0.075,0.21-0.179,0.312-0.271C5.023,5.98,5.112,5.883,5.204,5.793c0.085-0.084,0.149-0.18,0.154-0.299
			c0.013-0.291,0.022-0.58,0.027-0.871C5.39,4.277,5.389,3.932,5.39,3.586c0-0.244-0.001-0.488-0.001-0.732
			C5.39,2.805,5.38,2.774,5.32,2.797C4.965,2.932,4.617,3.079,4.299,3.293C4.273,3.311,4.244,3.336,4.235,3.365
			C4.214,3.429,4.193,3.496,4.196,3.562c0.015,0.603,0.033,1.205,0.05,1.809c0.012,0.418,0.025,0.834,0.035,1.251
			C4.284,6.641,4.288,6.66,4.292,6.697z M3.887,4.492c0.001,0,0.003,0,0.005,0c0-0.199,0.002-0.398-0.001-0.599
			c0-0.067-0.003-0.138-0.017-0.204c-0.018-0.074-0.044-0.08-0.1-0.029C3.683,3.742,3.589,3.827,3.506,3.918
			c-0.575,0.621-0.772,1.361-0.67,2.188c0.051,0.404,0.183,0.784,0.356,1.151c0.036,0.078,0.078,0.154,0.121,0.229
			c0.009,0.016,0.043,0.032,0.054,0.025c0.077-0.039,0.153-0.08,0.221-0.132C3.787,7.229,3.894,7.037,3.84,6.775
			c-0.014-0.074-0.007-0.154-0.003-0.23c0.009-0.16,0.023-0.318,0.03-0.479c0.004-0.083-0.014-0.168-0.012-0.252
			c0.008-0.266,0.022-0.531,0.03-0.797C3.89,4.843,3.887,4.668,3.887,4.492z M7.235,2.666c-0.003,0-0.004,0-0.007,0
			C7.223,2.588,7.216,2.511,7.214,2.434c-0.004-0.1-0.013-0.107-0.11-0.09C6.957,2.372,6.808,2.395,6.662,2.429
			C6.4,2.489,6.138,2.558,5.876,2.621c-0.055,0.014-0.077,0.044-0.077,0.1C5.796,2.877,5.788,3.035,5.787,3.192
			c-0.003,0.356,0,0.713-0.003,1.069c0,0.268-0.006,0.536-0.008,0.804C5.775,5.09,5.791,5.113,5.798,5.137
			C5.82,5.121,5.843,5.107,5.862,5.088c0.047-0.053,0.093-0.104,0.134-0.162c0.048-0.066,0.096-0.137,0.127-0.212
			c0.025-0.062,0.05-0.102,0.116-0.13C6.322,4.548,6.401,4.496,6.47,4.438c0.119-0.096,0.229-0.201,0.344-0.301
			C6.862,4.093,6.921,4.058,6.96,4.008C7.013,3.94,7.051,3.861,7.095,3.789c0.008-0.014,0.018-0.03,0.031-0.033
			C7.179,3.74,7.194,3.697,7.22,3.654C7.254,3.602,7.247,3.566,7.218,3.52C7.21,3.506,7.212,3.486,7.212,3.469
			c0-0.09-0.001-0.178,0.002-0.267C7.219,3.023,7.227,2.846,7.235,2.666z M7.721,3.245c0.011,0.003,0.021,0.006,0.033,0.009
			c0.043-0.057,0.082-0.117,0.13-0.17c0.144-0.158,0.29-0.315,0.439-0.47C8.37,2.568,8.429,2.535,8.478,2.488
			C8.551,2.42,8.622,2.348,8.689,2.273c0.016-0.017,0.028-0.051,0.021-0.07C8.705,2.186,8.671,2.174,8.65,2.166
			c-0.019-0.006-0.04-0.002-0.06,0C8.328,2.189,8.064,2.214,7.802,2.239C7.674,2.252,7.634,2.291,7.638,2.421
			c0.005,0.21,0.013,0.421,0.027,0.631C7.67,3.117,7.702,3.181,7.721,3.245z"/>
		<path fill="#B2D235" d="M2.664,11.405c0.246,0.071,0.498,0.099,0.755,0.089c0.227-0.01,0.454-0.025,0.683-0.039
			c-0.048,0.009-0.096,0.018-0.15,0.027c0.18,0.424,0.266,0.855,0.188,1.312c0.023,0.002,0.041,0.006,0.059,0.006
			c0.175,0.002,0.145,0.014,0.162-0.139c0.049-0.406-0.039-0.791-0.195-1.164c-0.008-0.02-0.042-0.028-0.063-0.042
			c0.1-0.017,0.199-0.03,0.299-0.052c0.305-0.062,0.607-0.128,0.912-0.192c0.066-0.015,0.134-0.032,0.198-0.049
			c-0.036,0.018-0.04,0.039-0.021,0.079c0.151,0.337,0.238,0.689,0.219,1.062c-0.007,0.141-0.038,0.279-0.061,0.419
			c-0.007,0.036-0.01,0.058,0.037,0.05c-0.059,0.014-0.117,0.031-0.174,0.037c-0.385,0.04-0.768,0.055-1.153,0.007
			c-0.157-0.019-0.319-0.008-0.478-0.022c-0.399-0.037-0.783-0.135-1.141-0.322c-0.012-0.006-0.021-0.016-0.031-0.023
			c0.038,0.016,0.077,0.03,0.118,0.047c0.007-0.023,0.013-0.042,0.016-0.062c0.004-0.028,0.008-0.058,0.009-0.086
			c0.011-0.241-0.013-0.478-0.077-0.71C2.749,11.557,2.744,11.463,2.664,11.405z"/>
		<path fill="#B2D235" d="M9.699,8.711C9.744,8.664,9.785,8.616,9.83,8.572c0.383-0.369,0.737-0.762,1.065-1.181
			c0.02-0.026,0.043-0.05,0.064-0.075c-0.029,0.043-0.028,0.083-0.006,0.135c0.25,0.588,0.357,1.199,0.284,1.838
			c-0.009,0.086-0.021,0.17-0.032,0.268c0.038-0.032,0.066-0.057,0.097-0.082c-0.316,0.369-0.669,0.704-1.035,1.022
			c-0.051,0.046-0.107,0.083-0.162,0.124c0.021-0.031,0.056-0.06,0.063-0.094c0.013-0.068,0.014-0.141,0.015-0.213
			c0.016-0.506-0.062-0.999-0.242-1.475c-0.03-0.083-0.066-0.165-0.102-0.252C9.786,8.635,9.742,8.672,9.699,8.711z"/>
		<path fill="#B2D235" d="M9.987,10.727c-0.399,0.34-0.833,0.633-1.28,0.906c-0.031,0.019-0.067,0.031-0.101,0.047
			c0.014-0.021,0.033-0.041,0.044-0.064c0.095-0.23,0.14-0.471,0.143-0.718c0.001-0.302-0.06-0.593-0.17-0.873
			C8.58,9.919,8.531,9.816,8.484,9.711C8.445,9.73,8.417,9.742,8.389,9.756C8.609,9.59,8.832,9.43,9.044,9.258
			C9.242,9.1,9.429,8.931,9.623,8.768c0.025-0.021,0.052-0.039,0.079-0.059C9.698,8.732,9.683,8.76,9.69,8.779
			c0.139,0.355,0.229,0.722,0.253,1.102c0.013,0.193,0,0.389-0.008,0.584c-0.003,0.1-0.021,0.199-0.033,0.312
			C9.935,10.756,9.96,10.741,9.987,10.727z"/>
		<path fill="#B2D235" d="M11.006,7.251c0.203-0.303,0.411-0.604,0.61-0.911c0.094-0.143,0.175-0.292,0.26-0.439
			c-0.021,0.041-0.013,0.075,0.014,0.115c0.075,0.123,0.15,0.246,0.214,0.375c0.164,0.326,0.279,0.669,0.33,1.031
			c0.019,0.127,0.032,0.255,0.048,0.382c0.007,0.008,0.013,0.016,0.02,0.023c0.008-0.019,0.014-0.036,0.021-0.055
			c-0.192,0.384-0.438,0.733-0.695,1.073c-0.114,0.15-0.238,0.292-0.357,0.438c0.007-0.051,0.019-0.101,0.021-0.15
			c0.021-0.482-0.042-0.954-0.202-1.41c-0.061-0.175-0.139-0.344-0.212-0.526C11.042,7.223,11.026,7.236,11.006,7.251z"/>
		<path fill="#B2D235" d="M8.421,11.786c-0.199,0.107-0.396,0.222-0.601,0.321c-0.188,0.092-0.384,0.168-0.575,0.252
			c0.014-0.021,0.037-0.041,0.043-0.065c0.027-0.125,0.061-0.25,0.07-0.376c0.037-0.447-0.061-0.869-0.259-1.27
			c-0.045-0.094-0.045-0.094-0.138-0.047c0.08-0.046,0.16-0.092,0.24-0.139c0.357-0.212,0.717-0.424,1.074-0.637
			C8.3,9.812,8.328,9.801,8.353,9.788c-0.036,0.024-0.02,0.052-0.006,0.08c0.102,0.224,0.176,0.456,0.212,0.7
			c0.051,0.336,0.026,0.664-0.092,0.984c-0.03,0.082-0.065,0.162-0.105,0.257C8.392,11.798,8.406,11.792,8.421,11.786z"/>
		<path fill="#B2D235" d="M5.552,11.16c0.074-0.029,0.148-0.059,0.224-0.089c0.349-0.14,0.697-0.28,1.046-0.419
			c0.028-0.012,0.057-0.023,0.086-0.035c0.002,0.028-0.002,0.061,0.009,0.084c0.128,0.271,0.214,0.553,0.238,0.851
			c0.022,0.263,0.004,0.526-0.083,0.779c-0.008,0.025-0.003,0.056-0.003,0.083c-0.088,0.035-0.173,0.077-0.264,0.102
			c-0.309,0.084-0.62,0.161-0.929,0.24c-0.033,0.008-0.065,0.012-0.098,0.018c0.025-0.021,0.067-0.04,0.074-0.066
			c0.025-0.119,0.051-0.238,0.057-0.359c0.025-0.396-0.061-0.771-0.223-1.131C5.647,11.127,5.647,11.127,5.552,11.16z"/>
		<path fill="#B2D235" d="M11.915,5.83c0.106-0.23,0.214-0.461,0.32-0.691c0.133-0.288,0.199-0.595,0.259-0.922
			c0.004,0.012,0.007,0.025,0.014,0.035c0.3,0.432,0.506,0.904,0.597,1.422c0.026,0.145,0.031,0.291,0.056,0.435
			c0.028,0.169-0.045,0.317-0.098,0.464c-0.104,0.285-0.227,0.562-0.343,0.842c-0.015,0.035-0.036,0.066-0.056,0.099
			c0.002-0.042,0.012-0.085,0.005-0.126c-0.083-0.475-0.242-0.924-0.497-1.334c-0.062-0.099-0.131-0.193-0.203-0.3
			C11.945,5.789,11.929,5.811,11.915,5.83z"/>
		<path fill="#B2D235" d="M13.355,5.65c-0.072-0.232-0.143-0.482-0.231-0.725c-0.12-0.32-0.297-0.613-0.513-0.881
			c-0.015-0.018-0.029-0.035-0.047-0.047c-0.012-0.006-0.031-0.002-0.057-0.002c0.035-0.396,0.073-0.807,0.111-1.218
			c0.007-0.001,0.015-0.001,0.023-0.002c0.02,0.046,0.039,0.091,0.058,0.138c0.15,0.35,0.305,0.697,0.448,1.051
			c0.124,0.305,0.21,0.621,0.241,0.949C13.411,5.166,13.41,5.418,13.355,5.65z"/>
		<path fill="#B2D235" d="M2.677,12.434c-0.309-0.145-0.557-0.365-0.774-0.623c-0.202-0.238-0.351-0.51-0.466-0.8
			c-0.001-0.005-0.001-0.013-0.001-0.032c0.071,0.025,0.139,0.051,0.205,0.076c0.314,0.111,0.628,0.224,0.942,0.336
			c0.012,0.004,0.022,0.012,0.034,0.019c-0.042-0.009-0.083-0.019-0.127-0.028c-0.001,0.014-0.004,0.021-0.003,0.025
			c0.119,0.308,0.172,0.625,0.158,0.954C2.646,12.385,2.667,12.409,2.677,12.434z"/>
		<path fill="#FFFFFF" d="M11.006,7.251c0.02-0.015,0.036-0.028,0.07-0.055c0.073,0.183,0.151,0.351,0.212,0.526
			c0.16,0.455,0.223,0.928,0.202,1.41c-0.003,0.049-0.015,0.1-0.021,0.15c-0.056,0.063-0.112,0.127-0.167,0.191
			c-0.03,0.025-0.059,0.05-0.097,0.08c0.012-0.096,0.023-0.181,0.032-0.266c0.074-0.639-0.034-1.25-0.284-1.838
			c-0.022-0.052-0.023-0.092,0.006-0.135C10.975,7.295,10.992,7.273,11.006,7.251z"/>
		<path fill="#FFFFFF" d="M9.987,10.727c-0.026,0.015-0.052,0.029-0.085,0.05c0.013-0.112,0.03-0.212,0.033-0.312
			c0.008-0.195,0.021-0.391,0.008-0.584C9.918,9.501,9.829,9.135,9.69,8.779c-0.007-0.02,0.008-0.047,0.012-0.07L9.699,8.711
			c0.043-0.039,0.087-0.076,0.141-0.123C9.875,8.675,9.912,8.757,9.941,8.84c0.181,0.476,0.258,0.969,0.242,1.475
			c-0.001,0.072-0.002,0.145-0.015,0.213c-0.008,0.034-0.042,0.062-0.063,0.094C10.064,10.656,10.026,10.691,9.987,10.727z"/>
		<path fill="#FFFFFF" d="M11.915,5.83c0.016-0.02,0.03-0.041,0.054-0.077c0.072,0.106,0.141,0.201,0.203,0.3
			c0.255,0.41,0.414,0.859,0.497,1.334c0.007,0.041-0.004,0.084-0.005,0.126C12.617,7.6,12.57,7.687,12.522,7.773
			c-0.007,0.018-0.013,0.035-0.021,0.054c-0.007-0.008-0.013-0.016-0.02-0.023c-0.016-0.127-0.029-0.255-0.048-0.382
			c-0.051-0.362-0.166-0.705-0.33-1.031c-0.063-0.129-0.139-0.252-0.214-0.375c-0.026-0.041-0.034-0.074-0.014-0.115
			C11.89,5.877,11.902,5.854,11.915,5.83z"/>
		<path fill="#FFFFFF" d="M8.421,11.786c-0.016,0.006-0.029,0.012-0.06,0.023c0.04-0.095,0.075-0.175,0.105-0.257
			c0.118-0.32,0.143-0.648,0.092-0.984c-0.036-0.244-0.11-0.477-0.212-0.7c-0.014-0.028-0.03-0.056,0.006-0.08
			c0.012-0.011,0.024-0.021,0.036-0.032c0.027-0.014,0.056-0.026,0.095-0.045c0.047,0.105,0.096,0.207,0.139,0.313
			c0.11,0.28,0.171,0.571,0.17,0.873c-0.003,0.247-0.048,0.487-0.143,0.718c-0.011,0.023-0.03,0.043-0.044,0.064
			C8.544,11.716,8.483,11.752,8.421,11.786z"/>
		<path fill="#FFFFFF" d="M7.069,12.414c0-0.027-0.005-0.058,0.003-0.083c0.087-0.253,0.105-0.516,0.083-0.779
			c-0.024-0.298-0.11-0.579-0.238-0.851c-0.011-0.023-0.007-0.056-0.009-0.084c0.02-0.006,0.036-0.011,0.055-0.016
			c0.093-0.047,0.093-0.047,0.138,0.047c0.198,0.4,0.297,0.822,0.259,1.27c-0.01,0.126-0.043,0.251-0.07,0.376
			c-0.006,0.024-0.029,0.044-0.043,0.065C7.187,12.377,7.127,12.396,7.069,12.414z"/>
		<path fill="#FFFFFF" d="M5.552,11.16c0.095-0.033,0.095-0.033,0.135,0.057c0.162,0.359,0.248,0.735,0.223,1.131
			c-0.006,0.121-0.031,0.24-0.057,0.359c-0.007,0.026-0.049,0.045-0.074,0.066c-0.032,0-0.064,0-0.096,0
			c-0.047,0.008-0.044-0.014-0.037-0.05c0.022-0.14,0.054-0.278,0.061-0.419c0.02-0.373-0.067-0.725-0.219-1.062
			c-0.019-0.04-0.015-0.062,0.021-0.079C5.524,11.162,5.538,11.161,5.552,11.16z"/>
		<path fill="#FFFFFF" d="M2.677,12.434c-0.01-0.024-0.031-0.049-0.031-0.073c0.014-0.329-0.039-0.646-0.158-0.953
			c-0.001-0.006,0.002-0.013,0.003-0.026c0.044,0.01,0.085,0.02,0.127,0.028c0.016-0.001,0.03-0.003,0.046-0.004
			c0.08,0.058,0.086,0.151,0.108,0.233c0.064,0.232,0.089,0.469,0.077,0.71c-0.001,0.028-0.005,0.058-0.009,0.086
			c-0.003,0.02-0.009,0.038-0.016,0.062c-0.041-0.017-0.08-0.031-0.118-0.047C2.697,12.444,2.688,12.439,2.677,12.434z"/>
		<path fill="#B2D235" d="M8.412,7.969c-0.13,0.141-0.254,0.289-0.395,0.422c-0.37,0.354-0.81,0.577-1.314,0.665
			c-0.334,0.058-0.667,0.05-1-0.005c-0.354-0.058-0.7-0.152-1.023-0.303C4.493,8.662,4.323,8.542,4.145,8.437
			C4.003,8.352,4.048,8.352,3.937,8.462C3.763,8.633,3.593,8.809,3.418,8.98C3.391,9.007,3.347,9.018,3.31,9.031
			c-0.027,0.01-0.058,0.012-0.086,0.021C3.071,9.101,2.939,9.033,2.892,8.881C2.853,8.758,2.878,8.646,2.968,8.555
			c0.35-0.354,0.699-0.707,1.049-1.061C4.141,7.369,4.264,7.24,4.394,7.121c0.091-0.083,0.193-0.152,0.29-0.229
			c0.011-0.008,0.023-0.014,0.032-0.023c0.238-0.24,0.488-0.473,0.711-0.728c0.098-0.112,0.178-0.239,0.285-0.345
			c0.16-0.154,0.319-0.309,0.472-0.47C6.429,5.07,6.664,4.805,6.91,4.55c0.188-0.194,0.385-0.379,0.579-0.567
			C7.694,3.78,7.901,3.58,8.106,3.376c0.056-0.056,0.1-0.125,0.156-0.18C8.467,3,8.681,2.812,8.877,2.61
			c0.098-0.099,0.174-0.218,0.249-0.335c0.052-0.078,0.105-0.143,0.205-0.145c0.09-0.002,0.183,0.002,0.273-0.002
			c0.07-0.004,0.092,0.031,0.092,0.096c0.001,0.17,0.016,0.342,0.006,0.512C9.681,3.209,9.649,3.68,9.623,4.151
			C9.621,4.199,9.598,4.212,9.558,4.215C9.371,4.23,9.182,4.246,8.995,4.26C8.667,4.285,8.34,4.311,8.012,4.338
			C7.979,4.341,7.94,4.361,7.916,4.385C7.837,4.458,7.763,4.537,7.69,4.615c0.003,0.006,0.005,0.014,0.008,0.02
			c0.626-0.049,1.251-0.099,1.888-0.148C9.572,4.584,9.567,4.676,9.548,4.766c-0.08,0.402-0.165,0.803-0.247,1.205
			c-0.011,0.051-0.035,0.07-0.084,0.074c-0.259,0.02-0.519,0.04-0.776,0.061C8.009,6.141,7.579,6.175,7.148,6.209
			C6.805,6.235,6.461,6.262,6.12,6.291C6.082,6.295,6.04,6.314,6.011,6.34c-0.08,0.071-0.149,0.15-0.224,0.227
			C5.79,6.572,5.792,6.58,5.794,6.588c1.129-0.09,2.258-0.178,3.399-0.27C9.177,6.377,9.166,6.426,9.149,6.472
			C9.014,6.857,8.856,7.232,8.65,7.588C8.611,7.655,8.567,7.672,8.497,7.671C7.507,7.662,6.517,7.655,5.528,7.648
			c-0.244-0.002-0.489-0.003-0.732,0c-0.035,0-0.077,0.02-0.104,0.043c-0.07,0.062-0.134,0.134-0.199,0.201
			C4.495,7.9,4.499,7.908,4.5,7.915c1.298,0.01,2.597,0.02,3.896,0.029C8.401,7.952,8.406,7.961,8.412,7.969z"/>
		<path fill="#B2D235" d="M4.292,6.697C4.288,6.66,4.283,6.641,4.281,6.622c-0.01-0.417-0.023-0.833-0.035-1.251
			C4.229,4.768,4.21,4.165,4.196,3.562C4.193,3.496,4.214,3.429,4.235,3.365c0.009-0.029,0.038-0.055,0.064-0.072
			C4.617,3.079,4.965,2.932,5.32,2.797C5.38,2.774,5.39,2.805,5.389,2.854c0,0.244,0.001,0.488,0.001,0.732
			c-0.001,0.346,0,0.691-0.005,1.037C5.38,4.914,5.371,5.203,5.358,5.494C5.353,5.613,5.289,5.71,5.204,5.793
			C5.112,5.883,5.023,5.98,4.927,6.068C4.826,6.161,4.738,6.265,4.616,6.34C4.509,6.408,4.39,6.486,4.349,6.626
			C4.342,6.647,4.319,6.664,4.292,6.697z"/>
		<path fill="#B2D235" d="M3.887,4.492c0,0.176,0.004,0.351-0.001,0.525c-0.008,0.266-0.022,0.531-0.03,0.797
			C3.854,5.898,3.872,5.983,3.868,6.066c-0.007,0.16-0.021,0.318-0.03,0.479C3.833,6.621,3.827,6.701,3.84,6.775
			C3.894,7.037,3.787,7.229,3.588,7.38C3.521,7.432,3.445,7.473,3.368,7.512c-0.011,0.006-0.045-0.01-0.054-0.025
			c-0.043-0.074-0.085-0.15-0.121-0.229C3.019,6.891,2.887,6.511,2.836,6.106c-0.103-0.829,0.095-1.567,0.67-2.188
			C3.589,3.827,3.683,3.742,3.775,3.66c0.056-0.051,0.082-0.045,0.1,0.029c0.014,0.066,0.017,0.137,0.017,0.204
			c0.003,0.2,0.001,0.399,0.001,0.599C3.89,4.492,3.888,4.492,3.887,4.492z"/>
		<path fill="#B2D235" d="M7.235,2.666c-0.008,0.18-0.016,0.357-0.021,0.536C7.211,3.291,7.212,3.379,7.212,3.467
			c0,0.02-0.002,0.039,0.006,0.053C7.247,3.566,7.255,3.602,7.22,3.654C7.194,3.697,7.179,3.74,7.126,3.756
			c-0.014,0.003-0.023,0.02-0.031,0.033C7.051,3.861,7.013,3.94,6.96,4.008c-0.039,0.05-0.099,0.085-0.146,0.127
			C6.699,4.236,6.589,4.342,6.47,4.438c-0.069,0.059-0.148,0.11-0.231,0.146c-0.066,0.028-0.091,0.068-0.116,0.13
			C6.091,4.789,6.043,4.858,5.996,4.926C5.955,4.983,5.909,5.035,5.862,5.088C5.843,5.107,5.82,5.121,5.798,5.137
			C5.791,5.113,5.775,5.09,5.776,5.065c0.002-0.268,0.008-0.536,0.008-0.804c0.003-0.356,0-0.713,0.003-1.069
			c0.001-0.157,0.01-0.315,0.013-0.472c0-0.056,0.022-0.086,0.077-0.1C6.138,2.558,6.4,2.489,6.663,2.429
			c0.146-0.034,0.294-0.057,0.442-0.085c0.097-0.018,0.105-0.01,0.109,0.09c0.002,0.077,0.01,0.154,0.014,0.232
			C7.231,2.666,7.232,2.666,7.235,2.666z"/>
		<path fill="#B2D235" d="M7.721,3.245C7.702,3.181,7.67,3.117,7.666,3.052c-0.015-0.21-0.022-0.421-0.027-0.631
			c-0.004-0.13,0.036-0.169,0.164-0.182c0.262-0.025,0.525-0.05,0.788-0.073c0.02-0.002,0.041-0.006,0.06,0
			c0.021,0.008,0.055,0.02,0.06,0.037c0.008,0.02-0.005,0.054-0.021,0.07C8.622,2.348,8.551,2.42,8.478,2.488
			C8.429,2.535,8.37,2.568,8.324,2.614c-0.149,0.154-0.296,0.312-0.439,0.47c-0.048,0.053-0.087,0.113-0.13,0.17
			C7.743,3.251,7.732,3.248,7.721,3.245z"/>
		<path fill="#FFFFFF" d="M4.1,11.456c0.021,0.014,0.056,0.022,0.063,0.042c0.156,0.373,0.244,0.758,0.195,1.164
			c-0.018,0.152,0.013,0.141-0.162,0.139c-0.018,0-0.035-0.004-0.059-0.006c0.078-0.457-0.008-0.889-0.188-1.312
			C4.005,11.473,4.053,11.464,4.1,11.456L4.1,11.456z"/>
	</g>
</g>
</svg>
