<?xml version="1.0" encoding="utf-8"?>
<!-- Generator: Adobe Illustrator 16.0.0, SVG Export Plug-In . SVG Version: 6.00 Build 0)  -->
<!DOCTYPE svg PUBLIC "-//W3C//DTD SVG 1.1//EN" "http://www.w3.org/Graphics/SVG/1.1/DTD/svg11.dtd">
<svg version="1.1" id="Layer_1" xmlns="http://www.w3.org/2000/svg" xmlns:xlink="http://www.w3.org/1999/xlink" x="0px" y="0px"
	 width="1214.957px" height="911.218px" viewBox="0 0 1214.957 911.218" enable-background="new 0 0 1214.957 911.218"
	 xml:space="preserve">
<g>
	<path d="M332.751,423.501c8.527,0.001,16.924-1.082,25.244-2.906c10.324-2.264,20.268-5.66,29.925-9.918
		c16.108-7.102,30.961-16.274,44.688-27.273c17.267-13.836,32.152-29.826,43.648-48.812c8.163-13.483,14.194-27.803,16.569-43.51
		c1.076-7.113,1.282-14.219,0.313-21.367c-0.86-6.35-2.517-12.463-5.485-18.136c-5.84-11.159-11.8-22.257-17.763-33.352
		c-5.513-10.257-13.627-17.808-24.088-22.872c-7.249-3.51-14.919-5.465-22.897-6.422c-6.748-0.811-13.498-0.816-20.241-0.254
		c-6.532,0.546-12.989,1.678-19.352,3.27c-12.102,3.026-23.682,7.463-34.828,13.049c-14.696,7.365-28.293,16.396-40.832,27.015
		c-16.146,13.673-30.079,29.26-40.737,47.618c-8.386,14.445-14.417,29.711-15.812,46.55c-0.462,5.579-0.41,11.147,0.455,16.667
		c1.076,6.861,3.212,13.366,6.558,19.518c5.339,9.814,10.511,19.723,15.623,29.659c6.859,13.331,17.565,22.147,31.545,27.125
		C314.152,422.306,323.363,423.512,332.751,423.501z"/>
	<path fill-rule="evenodd" clip-rule="evenodd" fill="#FFFFFF" d="M332.751,423.501c-9.388,0.011-18.599-1.195-27.466-4.353
		c-13.979-4.978-24.686-13.794-31.545-27.125c-5.112-9.937-10.283-19.845-15.623-29.659c-3.346-6.151-5.482-12.656-6.558-19.518
		c-0.865-5.52-0.917-11.088-0.455-16.667c1.395-16.839,7.426-32.104,15.812-46.55c10.659-18.358,24.592-33.945,40.737-47.618
		c12.539-10.618,26.136-19.649,40.832-27.015c11.146-5.586,22.726-10.022,34.828-13.049c6.362-1.592,12.819-2.724,19.352-3.27
		c6.744-0.562,13.493-0.557,20.241,0.254c7.978,0.957,15.648,2.912,22.897,6.422c10.461,5.064,18.576,12.615,24.088,22.872
		c5.963,11.095,11.922,22.192,17.763,33.352c2.969,5.673,4.625,11.786,5.485,18.136c0.969,7.148,0.763,14.254-0.313,21.367
		c-2.375,15.707-8.406,30.026-16.569,43.51c-11.496,18.986-26.382,34.977-43.648,48.812c-13.727,10.999-28.58,20.172-44.688,27.273
		c-9.658,4.258-19.602,7.654-29.925,9.918C349.675,422.419,341.278,423.502,332.751,423.501z M298.538,409.859
		c0.173,0.089,0.346,0.177,0.519,0.266c0.185,0.139,0.355,0.306,0.558,0.412c6.365,3.359,13.206,5.082,20.323,5.75
		c2.824,0.265,5.696,0.065,8.505,0.411c6.866,0.846,13.706,0.582,20.549-0.119c1.043-0.107,2.065-0.433,3.097-0.656
		c0.57-0.007,1.141-0.014,1.71-0.021c0.578-0.101,1.164-0.164,1.73-0.309c5.527-1.411,11.062-2.792,16.568-4.282
		c1.611-0.437,3.136-1.196,4.7-1.808c1.045-0.325,2.09-0.65,3.135-0.977c3.429-1.489,6.915-2.863,10.271-4.503
		c3.628-1.771,7.135-3.793,10.694-5.705c1.092-0.634,2.185-1.267,3.277-1.9c0.605-0.279,1.246-0.503,1.811-0.848
		c7.965-4.865,15.676-10.09,22.799-16.146c0.7-0.624,1.399-1.247,2.099-1.871c0.968-0.733,1.983-1.414,2.897-2.209
		c6.534-5.682,12.799-11.639,18.426-18.216c0.999-1.143,1.998-2.284,2.997-3.426c2.124-2.594,4.333-5.125,6.356-7.795
		c4.597-6.068,8.976-12.288,12.414-19.105c0.838-1.549,1.676-3.098,2.515-4.646c0.331-0.581,0.728-1.135,0.983-1.748
		c2.073-4.986,4.275-9.927,6.108-15.001c0.948-2.625,2.261-5.255,1.745-8.272c-0.438-2.562-0.542-5.181-0.992-7.74
		c-1.624-9.241-5.287-17.646-10.633-25.335c-0.127-0.183-0.165-0.427-0.244-0.643c-1.05,5.843-2.24,11.296-4.617,16.431
		c-1.904,4.112-3.8,8.227-5.7,12.34c-0.219,0.415-0.439,0.829-0.658,1.243c-1.542,2.616-2.985,5.296-4.645,7.834
		c-3.564,5.448-7.239,10.824-10.869,16.23c-0.28,0.388-0.56,0.775-0.839,1.163c-0.388,0.446-0.796,0.877-1.16,1.342
		c-5.828,7.455-12.165,14.45-18.964,21.029c-0.816,0.789-1.563,1.649-2.342,2.478l0.042-0.041c-0.472,0.348-0.968,0.666-1.414,1.045
		c-3.424,2.918-6.767,5.936-10.276,8.746c-3.815,3.056-7.783,5.921-11.684,8.868c-0.219,0.194-0.439,0.388-0.658,0.58
		c-0.455,0.227-0.926,0.424-1.362,0.683c-6.385,3.779-12.764,7.569-19.148,11.349c-1.415,0.837-2.848,1.643-4.272,2.462
		c-0.326,0.093-0.651,0.186-0.977,0.277c-0.51,0.208-1.019,0.418-1.53,0.623c-6.207,2.489-12.413,4.979-18.62,7.467
		c-1.336,0.535-2.673,1.066-4.01,1.6c-0.248,0.014-0.496,0.027-0.744,0.041c-1.181,0.289-2.356,0.605-3.545,0.86
		c-5.415,1.162-10.83,2.325-16.253,3.447c-1.765,0.366-3.554,0.612-5.332,0.913l0.038-0.023c-4.063,0.235-8.124,0.523-12.19,0.69
		c-4.56,0.189-9.058-0.293-13.455-1.568c-0.265,0.022-0.53,0.046-0.794,0.068c-0.204-0.113-0.397-0.259-0.614-0.336
		c-5.594-2.003-11.192-3.994-16.786-5.995c-1.195-0.428-2.379-0.882-3.672-1.362c0.021,0.368-0.002,0.494,0.038,0.596
		c2.051,5.165,4.687,9.997,8.292,14.251C288.618,403.334,293.035,407.276,298.538,409.859z M255.887,333.274
		c0.018,6.445,1.202,13.332,3.81,19.944c3.606,9.147,9.019,17.003,16.786,23.13c9.329,7.358,20.125,10.496,31.832,10.819
		c7.094,0.196,14.125-0.65,21.083-1.956c8.621-1.618,17.019-4.067,25.209-7.213c25.037-9.617,47.127-23.921,66.716-42.143
		c15.999-14.883,29.426-31.747,38.937-51.539c4.88-10.156,8.523-20.69,9.594-32.006c0.692-7.311,0.253-14.505-1.706-21.596
		c-3.059-11.066-9.287-19.867-18.793-26.323c-10.541-7.158-22.311-10.394-34.93-10.762c-9.011-0.263-17.901,0.886-26.667,2.893
		c-11.351,2.599-22.218,6.606-32.668,11.729c-23.538,11.537-43.956,27.214-61.509,46.637c-13.025,14.411-23.78,30.322-31.247,48.332
		C258.435,312.626,255.967,322.37,255.887,333.274z M488.821,288.972c0.943-4.143,0.988-8.647,0.572-13.132
		c-0.542-5.843-2.074-11.488-4.284-16.912c-2.56-6.281-5.303-12.488-7.966-18.728c-0.347-0.812-0.692-1.625-1.038-2.438
		c-0.146,0.012-0.293,0.021-0.439,0.033c-0.663,7.322-1.326,14.645-1.966,21.715c0.447,0,0.794-0.102,1.003,0.024
		c0.326,0.196,0.581,0.529,0.828,0.835c3.862,4.76,7.01,9.967,9.147,15.702C486.282,280.378,487.504,284.826,488.821,288.972z"/>
	<path fill-rule="evenodd" clip-rule="evenodd" d="M255.887,333.274c0.08-10.904,2.548-20.648,6.447-30.054
		c7.466-18.01,18.221-33.921,31.247-48.332c17.553-19.423,37.971-35.1,61.509-46.637c10.45-5.122,21.317-9.13,32.668-11.729
		c8.766-2.007,17.655-3.155,26.667-2.893c12.619,0.368,24.389,3.604,34.93,10.762c9.507,6.456,15.735,15.257,18.793,26.323
		c1.959,7.091,2.398,14.285,1.706,21.596c-1.071,11.315-4.714,21.85-9.594,32.006c-9.511,19.792-22.938,36.656-38.937,51.539
		c-19.588,18.222-41.679,32.525-66.716,42.143c-8.191,3.146-16.589,5.595-25.209,7.213c-6.958,1.306-13.989,2.152-21.083,1.956
		c-11.707-0.323-22.503-3.461-31.832-10.819c-7.767-6.127-13.18-13.982-16.786-23.13
		C257.089,346.606,255.905,339.72,255.887,333.274z M400.722,330.283c-0.099-0.146-0.197-0.29-0.296-0.436
		c-23.135-0.172-46.271-0.345-69.407-0.516c-0.044-0.133-0.088-0.265-0.132-0.396c1.17-1.208,2.292-2.47,3.535-3.596
		c0.469-0.425,1.217-0.751,1.842-0.759c4.35-0.053,8.701-0.025,13.052,0.004c17.639,0.119,35.277,0.239,52.916,0.391
		c1.251,0.011,2.024-0.272,2.727-1.48c3.675-6.318,6.48-13.01,8.886-19.886c0.292-0.835,0.499-1.698,0.795-2.724
		c-20.335,1.612-40.455,3.207-60.575,4.802c-0.039-0.135-0.079-0.27-0.119-0.404c1.319-1.349,2.592-2.749,3.981-4.021
		c0.501-0.459,1.267-0.813,1.941-0.872c6.103-0.533,12.212-0.987,18.319-1.471c7.684-0.608,15.367-1.222,23.05-1.834
		c4.61-0.367,9.219-0.746,13.831-1.095c0.871-0.065,1.318-0.4,1.502-1.311c1.448-7.157,2.965-14.301,4.406-21.46
		c0.323-1.604,0.432-3.25,0.655-4.995c-11.331,0.894-22.483,1.773-33.636,2.652c-0.048-0.12-0.097-0.241-0.146-0.361
		c1.333-1.375,2.628-2.79,4.019-4.103c0.449-0.422,1.133-0.773,1.737-0.825c5.828-0.503,11.662-0.932,17.494-1.388
		c3.349-0.263,6.697-0.542,10.046-0.804c0.717-0.056,1.11-0.275,1.158-1.132c0.462-8.404,1.035-16.803,1.438-25.211
		c0.146-3.035-0.101-6.088-0.128-9.133c-0.01-1.135-0.365-1.764-1.639-1.707c-1.617,0.072-3.24,0.002-4.859,0.043
		c-1.781,0.045-2.746,1.189-3.66,2.585c-1.354,2.068-2.699,4.21-4.417,5.958c-3.54,3.601-7.347,6.938-10.993,10.437
		c-1.021,0.979-1.792,2.217-2.795,3.218c-3.635,3.623-7.32,7.196-10.988,10.787c-3.442,3.368-6.971,6.653-10.31,10.121
		c-4.383,4.55-8.578,9.28-12.932,13.859c-2.72,2.861-5.567,5.603-8.392,8.361c-1.919,1.876-3.365,4.15-5.092,6.139
		c-3.959,4.556-8.411,8.685-12.668,12.981c-0.164,0.165-0.391,0.267-0.578,0.411c-1.729,1.348-3.551,2.594-5.162,4.07
		c-2.322,2.129-4.502,4.415-6.722,6.656c-6.234,6.291-12.462,12.588-18.681,18.895c-1.618,1.641-2.041,3.602-1.373,5.796
		c0.831,2.729,3.181,3.927,5.938,3.057c0.488-0.153,1.02-0.178,1.497-0.356c0.679-0.255,1.472-0.448,1.962-0.928
		c3.108-3.041,6.124-6.177,9.214-9.236c1.981-1.962,1.214-1.953,3.725-0.447c3.149,1.888,6.184,4.03,9.5,5.562
		c5.791,2.678,11.934,4.355,18.246,5.384c5.94,0.969,11.879,1.128,17.822,0.092c9.021-1.573,16.849-5.562,23.448-11.875
		C396.176,335.421,398.391,332.79,400.722,330.283z M327.318,307.636c0.474-0.594,0.881-0.895,0.997-1.283
		c0.745-2.49,2.846-3.879,4.763-5.08c2.162-1.352,3.75-3.197,5.56-4.853c1.71-1.563,3.263-3.296,4.925-4.913
		c1.519-1.479,2.638-3.195,2.733-5.328c0.231-5.168,0.405-10.339,0.482-15.511c0.093-6.161,0.068-12.323,0.08-18.486
		c0.009-4.348-0.012-8.696-0.004-13.044c0.001-0.871-0.168-1.42-1.224-1.02c-6.325,2.404-12.541,5.034-18.184,8.836
		c-0.471,0.317-0.997,0.781-1.157,1.285c-0.362,1.14-0.74,2.352-0.711,3.525c0.257,10.747,0.603,21.492,0.917,32.238
		c0.217,7.43,0.421,14.857,0.638,22.287C327.144,306.624,327.223,306.956,327.318,307.636z M320.082,268.341
		c0.034,0,0.067,0,0.101,0c0-3.557,0.024-7.113-0.013-10.669c-0.013-1.215-0.053-2.456-0.311-3.636
		c-0.287-1.311-0.776-1.443-1.782-0.534c-1.641,1.482-3.281,2.98-4.781,4.603c-10.245,11.071-13.765,24.242-11.933,38.998
		c0.894,7.199,3.264,13.979,6.355,20.513c0.658,1.391,1.386,2.752,2.157,4.083c0.153,0.266,0.771,0.56,0.968,0.454
		c1.345-0.722,2.721-1.434,3.926-2.358c3.53-2.706,5.434-6.113,4.501-10.762c-0.266-1.329-0.148-2.754-0.076-4.127
		c0.148-2.838,0.448-5.669,0.56-8.508c0.059-1.491-0.256-2.997-0.214-4.49c0.133-4.733,0.399-9.463,0.525-14.196
		C320.149,274.59,320.082,271.465,320.082,268.341z M379.75,235.793c-0.037-0.003-0.073-0.005-0.109-0.007
		c-0.093-1.378-0.219-2.756-0.27-4.136c-0.065-1.77-0.229-1.923-1.943-1.597c-2.633,0.498-5.287,0.901-7.895,1.506
		c-4.686,1.084-9.341,2.295-14.014,3.436c-0.952,0.232-1.338,0.771-1.352,1.763c-0.039,2.804-0.213,5.605-0.231,8.409
		c-0.04,6.356,0.005,12.714-0.029,19.07c-0.026,4.774-0.132,9.547-0.166,14.32c-0.003,0.418,0.267,0.838,0.41,1.257
		c0.376-0.282,0.81-0.515,1.117-0.858c0.833-0.932,1.684-1.862,2.396-2.885c0.84-1.204,1.699-2.44,2.255-3.785
		c0.45-1.086,0.899-1.816,2.073-2.316c1.487-0.634,2.888-1.581,4.152-2.607c2.103-1.706,4.062-3.589,6.094-5.383
		c0.873-0.771,1.925-1.391,2.628-2.287c0.935-1.193,1.601-2.595,2.398-3.897c0.139-0.227,0.323-0.525,0.543-0.588
		c0.954-0.271,1.21-1.051,1.688-1.793c0.607-0.944,0.464-1.587-0.037-2.402c-0.148-0.239-0.095-0.616-0.097-0.931
		c-0.006-1.578-0.039-3.158,0.011-4.735C379.475,242.16,379.622,238.978,379.75,235.793z M388.409,246.123
		c0.198,0.05,0.397,0.101,0.595,0.151c0.764-1.016,1.454-2.097,2.306-3.031c2.576-2.824,5.186-5.619,7.845-8.366
		c0.815-0.841,1.884-1.431,2.741-2.237c1.306-1.229,2.554-2.523,3.765-3.847c0.274-0.3,0.489-0.902,0.372-1.241
		c-0.11-0.316-0.675-0.535-1.082-0.669c-0.32-0.104-0.707-0.038-1.06-0.006c-4.678,0.431-9.357,0.86-14.033,1.311
		c-2.284,0.219-2.985,0.925-2.929,3.233c0.091,3.748,0.229,7.499,0.495,11.238C387.507,243.831,388.067,244.969,388.409,246.123z"/>
	<path fill-rule="evenodd" clip-rule="evenodd" d="M298.271,391.527c4.397,1.275,8.895,1.758,13.455,1.568
		c4.066-0.167,8.126-0.455,12.188-0.689c-0.864,0.159-1.726,0.317-2.685,0.493c3.191,7.558,4.723,15.235,3.346,23.386
		c0.418,0.045,0.722,0.104,1.026,0.107c3.131,0.026,2.581,0.239,2.904-2.46c0.872-7.264-0.702-14.119-3.483-20.763
		c-0.145-0.346-0.753-0.499-1.145-0.741c1.778-0.301,3.567-0.547,5.332-0.913c5.423-1.122,10.838-2.285,16.253-3.447
		c1.189-0.255,2.364-0.571,3.545-0.86c-0.66,0.314-0.722,0.695-0.408,1.396c2.703,6.02,4.26,12.309,3.915,18.939
		c-0.131,2.504-0.68,4.988-1.094,7.472c-0.105,0.634-0.152,1.039,0.667,0.907c-1.032,0.224-2.053,0.549-3.097,0.656
		c-6.843,0.701-13.683,0.965-20.549,0.119c-2.809-0.346-5.681-0.146-8.505-0.411c-7.117-0.668-13.958-2.391-20.323-5.75
		c-0.202-0.106-0.373-0.273-0.558-0.412c0.684,0.272,1.368,0.546,2.116,0.845c0.106-0.428,0.216-0.763,0.269-1.107
		c0.076-0.507,0.137-1.02,0.161-1.531c0.201-4.287-0.239-8.516-1.382-12.646C299.813,394.216,299.707,392.54,298.271,391.527z"/>
	<path fill-rule="evenodd" clip-rule="evenodd" d="M423.66,343.509c0.778-0.828,1.525-1.688,2.341-2.478
		c6.799-6.579,13.136-13.574,18.964-21.029c0.364-0.465,0.772-0.896,1.16-1.342c-0.535,0.773-0.507,1.485-0.122,2.392
		c4.459,10.486,6.387,21.38,5.088,32.767c-0.173,1.515-0.364,3.028-0.572,4.743c0.651-0.555,1.174-0.999,1.696-1.443
		c-5.638,6.589-11.903,12.546-18.437,18.228c-0.915,0.795-1.929,1.476-2.897,2.208c0.393-0.557,1.009-1.07,1.13-1.68
		c0.243-1.229,0.255-2.51,0.293-3.771c0.273-9.044-1.125-17.818-4.319-26.293c-0.559-1.483-1.198-2.937-1.837-4.495
		C425.195,342.156,424.428,342.832,423.66,343.509z"/>
	<path fill-rule="evenodd" clip-rule="evenodd" d="M428.783,379.426c-7.123,6.056-14.834,11.28-22.799,16.146
		c-0.565,0.345-1.206,0.568-1.811,0.848c0.263-0.386,0.601-0.738,0.775-1.159c1.693-4.091,2.515-8.385,2.543-12.785
		c0.035-5.368-1.042-10.568-3.027-15.559c-0.751-1.886-1.634-3.72-2.459-5.58c-0.701,0.331-1.189,0.562-1.677,0.791
		c3.901-2.947,7.868-5.812,11.684-8.868c3.509-2.811,6.852-5.828,10.276-8.746c0.445-0.379,0.941-0.697,1.414-1.045
		c-0.075,0.425-0.331,0.92-0.197,1.264c2.458,6.323,4.064,12.858,4.501,19.619c0.224,3.453,0.006,6.939-0.129,10.406
		c-0.07,1.784-0.396,3.559-0.633,5.556C427.868,379.954,428.325,379.69,428.783,379.426z"/>
	<path fill-rule="evenodd" clip-rule="evenodd" d="M446.965,317.497c3.63-5.406,7.305-10.782,10.869-16.23
		c1.66-2.538,3.104-5.218,4.645-7.834c-0.372,0.732-0.236,1.334,0.211,2.057c1.35,2.18,2.683,4.382,3.833,6.672
		c2.92,5.813,4.972,11.925,5.881,18.389c0.318,2.26,0.569,4.528,0.85,6.792c0.117,0.141,0.234,0.281,0.352,0.421
		c0.123-0.322,0.247-0.644,0.37-0.965c-3.44,6.823-7.819,13.043-12.417,19.111c-2.024,2.67-4.232,5.201-6.356,7.795
		c0.134-0.896,0.35-1.788,0.389-2.688c0.374-8.598-0.777-16.995-3.598-25.124c-1.08-3.112-2.467-6.117-3.797-9.371
		C447.613,316.983,447.289,317.239,446.965,317.497z"/>
	<path fill-rule="evenodd" clip-rule="evenodd" d="M400.896,398.319c-3.559,1.912-7.066,3.934-10.694,5.705
		c-3.356,1.64-6.842,3.014-10.271,4.503c0.262-0.386,0.671-0.74,0.762-1.163c0.48-2.227,1.082-4.453,1.271-6.712
		c0.667-7.97-1.081-15.486-4.609-22.623c-0.82-1.658-0.809-1.664-2.468-0.829c1.425-0.819,2.858-1.625,4.273-2.462
		c6.384-3.779,12.763-7.569,19.148-11.349c0.436-0.259,0.908-0.456,1.362-0.683c-0.643,0.427-0.36,0.912-0.122,1.429
		c1.838,3.982,3.153,8.113,3.806,12.47c0.898,6,0.459,11.851-1.646,17.55c-0.537,1.452-1.167,2.87-1.867,4.581
		C400.371,398.527,400.634,398.423,400.896,398.319z"/>
	<path fill-rule="evenodd" clip-rule="evenodd" d="M349.751,387.167c1.336-0.533,2.674-1.064,4.01-1.6
		c6.207-2.488,12.414-4.978,18.62-7.467c0.511-0.205,1.021-0.415,1.53-0.623c0.048,0.506-0.041,1.078,0.165,1.509
		c2.292,4.809,3.815,9.852,4.25,15.148c0.385,4.693,0.061,9.366-1.477,13.888c-0.152,0.448-0.042,0.986-0.053,1.481
		c-1.564,0.611-3.088,1.371-4.7,1.808c-5.506,1.49-11.041,2.871-16.568,4.282c-0.566,0.145-1.153,0.208-1.73,0.309
		c0.456-0.391,1.214-0.716,1.315-1.185c0.456-2.107,0.896-4.245,1.031-6.391c0.445-7.059-1.091-13.758-3.981-20.174
		C351.445,386.558,351.444,386.558,349.751,387.167z"/>
	<path fill-rule="evenodd" clip-rule="evenodd" d="M463.138,292.189c1.9-4.113,3.796-8.228,5.7-12.34
		c2.377-5.135,3.566-10.588,4.617-16.431c0.079,0.216,0.117,0.46,0.244,0.643c5.346,7.689,9.009,16.094,10.633,25.335
		c0.449,2.56,0.554,5.179,0.992,7.74c0.516,3.018-0.797,5.647-1.745,8.272c-1.833,5.074-4.035,10.015-6.108,15.001
		c-0.255,0.613-0.652,1.167-0.982,1.745c0.03-0.747,0.193-1.515,0.069-2.232c-1.472-8.476-4.297-16.459-8.864-23.781
		c-1.094-1.754-2.308-3.434-3.596-5.341C463.657,291.438,463.397,291.814,463.138,292.189z"/>
	<path fill-rule="evenodd" clip-rule="evenodd" d="M488.821,288.972c-1.316-4.146-2.539-8.594-4.143-12.899
		c-2.137-5.735-5.285-10.942-9.147-15.702c-0.248-0.306-0.502-0.639-0.828-0.835c-0.209-0.126-0.557-0.024-1.003-0.024
		c0.64-7.07,1.303-14.393,1.966-21.715c0.146-0.012,0.293-0.021,0.439-0.033c0.346,0.812,0.691,1.625,1.038,2.438
		c2.663,6.239,5.406,12.446,7.966,18.728c2.21,5.424,3.742,11.069,4.284,16.912C489.809,280.324,489.764,284.829,488.821,288.972z"
		/>
	<path fill-rule="evenodd" clip-rule="evenodd" d="M298.538,409.859c-5.503-2.583-9.92-6.525-13.805-11.11
		c-3.605-4.254-6.241-9.086-8.292-14.251c-0.04-0.102-0.017-0.228-0.038-0.596c1.293,0.48,2.478,0.935,3.672,1.362
		c5.594,2.001,11.192,3.992,16.786,5.995c0.217,0.077,0.41,0.223,0.614,0.336c-0.745-0.165-1.489-0.331-2.272-0.506
		c-0.022,0.248-0.072,0.374-0.036,0.467c2.109,5.468,3.04,11.126,2.812,16.984C297.963,408.974,298.343,409.42,298.538,409.859z"/>
	<path fill-rule="evenodd" clip-rule="evenodd" fill="#FFFFFF" d="M446.965,317.497c0.324-0.258,0.648-0.514,1.231-0.977
		c1.33,3.254,2.717,6.259,3.797,9.371c2.821,8.129,3.972,16.526,3.598,25.124c-0.04,0.9-0.255,1.793-0.389,2.688
		c-0.999,1.142-1.998,2.283-2.991,3.42c-0.517,0.438-1.039,0.883-1.69,1.438c0.208-1.715,0.399-3.229,0.572-4.743
		c1.299-11.387-0.629-22.28-5.088-32.767c-0.385-0.906-0.413-1.618,0.122-2.392C446.406,318.272,446.686,317.885,446.965,317.497z"
		/>
	<path fill-rule="evenodd" clip-rule="evenodd" fill="#FFFFFF" d="M428.783,379.426c-0.458,0.265-0.916,0.528-1.539,0.887
		c0.237-1.997,0.563-3.771,0.633-5.556c0.136-3.467,0.354-6.953,0.129-10.406c-0.438-6.761-2.043-13.296-4.501-19.619
		c-0.134-0.344,0.122-0.839,0.197-1.264l-0.042,0.041c0.768-0.677,1.536-1.353,2.49-2.193c0.639,1.559,1.278,3.012,1.837,4.495
		c3.193,8.475,4.592,17.249,4.319,26.293c-0.038,1.261-0.05,2.542-0.293,3.771c-0.121,0.609-0.737,1.123-1.13,1.68
		C430.182,378.179,429.483,378.802,428.783,379.426z"/>
	<path fill-rule="evenodd" clip-rule="evenodd" fill="#FFFFFF" d="M463.138,292.189c0.26-0.375,0.519-0.752,0.959-1.389
		c1.289,1.907,2.502,3.587,3.596,5.341c4.566,7.322,7.392,15.306,8.864,23.781c0.125,0.718-0.039,1.485-0.069,2.232
		c-0.839,1.551-1.677,3.1-2.514,4.646c-0.122,0.318-0.245,0.64-0.368,0.962c-0.117-0.14-0.234-0.28-0.352-0.421
		c-0.281-2.264-0.532-4.532-0.85-6.792c-0.909-6.464-2.96-12.575-5.881-18.389c-1.15-2.29-2.483-4.492-3.833-6.672
		c-0.447-0.723-0.583-1.324-0.211-2.057C462.699,293.019,462.918,292.604,463.138,292.189z"/>
	<path fill-rule="evenodd" clip-rule="evenodd" fill="#FFFFFF" d="M400.896,398.319c-0.263,0.104-0.526,0.208-1.055,0.417
		c0.701-1.711,1.331-3.129,1.867-4.581c2.106-5.699,2.544-11.55,1.646-17.55c-0.652-4.356-1.967-8.487-3.806-12.47
		c-0.238-0.517-0.521-1.002,0.122-1.429c0.219-0.192,0.439-0.386,0.658-0.58c0.488-0.229,0.976-0.46,1.677-0.791
		c0.825,1.86,1.708,3.694,2.459,5.58c1.986,4.99,3.062,10.19,3.027,15.559c-0.029,4.4-0.85,8.694-2.543,12.785
		c-0.174,0.421-0.512,0.773-0.775,1.159C403.081,397.053,401.989,397.686,400.896,398.319z"/>
	<path fill-rule="evenodd" clip-rule="evenodd" fill="#FFFFFF" d="M376.796,409.504c0.011-0.495-0.099-1.033,0.053-1.481
		c1.538-4.521,1.862-9.194,1.477-13.888c-0.435-5.297-1.958-10.34-4.25-15.148c-0.206-0.431-0.116-1.003-0.165-1.509
		c0.326-0.092,0.651-0.185,0.977-0.277c1.659-0.835,1.648-0.829,2.468,0.829c3.528,7.137,5.276,14.653,4.609,22.623
		c-0.189,2.259-0.791,4.485-1.271,6.712c-0.091,0.423-0.5,0.777-0.762,1.163C378.887,408.854,377.842,409.179,376.796,409.504z"/>
	<path fill-rule="evenodd" clip-rule="evenodd" fill="#FFFFFF" d="M349.751,387.167c1.693-0.609,1.693-0.609,2.412,0.986
		c2.89,6.416,4.426,13.115,3.981,20.174c-0.135,2.146-0.575,4.283-1.031,6.391c-0.101,0.469-0.86,0.794-1.315,1.185
		c-0.57,0.007-1.141,0.014-1.711,0.021c-0.819,0.132-0.772-0.273-0.667-0.907c0.414-2.483,0.963-4.968,1.094-7.472
		c0.346-6.631-1.211-12.92-3.915-18.939c-0.314-0.701-0.252-1.082,0.408-1.396C349.256,387.194,349.503,387.181,349.751,387.167z"/>
	<path fill-rule="evenodd" clip-rule="evenodd" fill="#FFFFFF" d="M298.538,409.859c-0.195-0.439-0.575-0.886-0.558-1.318
		c0.228-5.858-0.703-11.517-2.812-16.984c-0.036-0.093,0.014-0.219,0.036-0.467c0.783,0.175,1.527,0.341,2.272,0.506
		c0.265-0.022,0.53-0.046,0.795-0.068c1.437,1.013,1.543,2.688,1.949,4.157c1.143,4.131,1.583,8.359,1.382,12.646
		c-0.024,0.512-0.084,1.024-0.161,1.531c-0.052,0.345-0.163,0.68-0.269,1.107c-0.748-0.299-1.432-0.572-2.116-0.845
		C298.884,410.036,298.711,409.948,298.538,409.859z"/>
	<path fill-rule="evenodd" clip-rule="evenodd" fill="#FFFFFF" d="M400.722,330.283c-2.331,2.507-4.546,5.138-7.016,7.5
		c-6.599,6.313-14.427,10.302-23.448,11.875c-5.943,1.036-11.882,0.877-17.822-0.092c-6.312-1.028-12.455-2.706-18.246-5.384
		c-3.316-1.532-6.351-3.675-9.5-5.562c-2.51-1.506-1.743-1.515-3.725,0.447c-3.091,3.06-6.106,6.195-9.214,9.236
		c-0.49,0.479-1.283,0.673-1.962,0.928c-0.477,0.179-1.009,0.203-1.497,0.356c-2.756,0.87-5.107-0.327-5.938-3.057
		c-0.668-2.194-0.245-4.155,1.373-5.796c6.218-6.307,12.447-12.604,18.681-18.895c2.22-2.241,4.4-4.527,6.722-6.656
		c1.61-1.477,3.432-2.723,5.162-4.07c0.187-0.145,0.414-0.246,0.578-0.411c4.257-4.297,8.708-8.426,12.668-12.981
		c1.728-1.988,3.173-4.263,5.092-6.139c2.825-2.759,5.671-5.5,8.392-8.361c4.354-4.579,8.548-9.31,12.932-13.859
		c3.339-3.468,6.868-6.753,10.31-10.121c3.668-3.591,7.353-7.164,10.988-10.787c1.004-1.001,1.775-2.238,2.795-3.218
		c3.646-3.499,7.453-6.836,10.993-10.437c1.718-1.748,3.062-3.89,4.417-5.958c0.914-1.396,1.879-2.54,3.66-2.585
		c1.619-0.041,3.242,0.029,4.859-0.043c1.273-0.057,1.628,0.572,1.639,1.707c0.028,3.045,0.274,6.098,0.128,9.133
		c-0.403,8.408-0.975,16.807-1.438,25.211c-0.047,0.856-0.441,1.076-1.158,1.132c-3.349,0.262-6.697,0.541-10.046,0.804
		c-5.832,0.456-11.666,0.885-17.494,1.388c-0.604,0.052-1.289,0.403-1.737,0.825c-1.391,1.312-2.687,2.728-4.019,4.103
		c0.048,0.12,0.097,0.241,0.146,0.361c11.153-0.879,22.305-1.759,33.636-2.652c-0.223,1.745-0.333,3.392-0.655,4.995
		c-1.441,7.159-2.958,14.303-4.406,21.46c-0.184,0.91-0.631,1.245-1.502,1.311c-4.612,0.349-9.221,0.728-13.831,1.095
		c-7.683,0.612-15.367,1.226-23.05,1.834c-6.107,0.483-12.217,0.938-18.319,1.471c-0.675,0.059-1.44,0.413-1.941,0.872
		c-1.39,1.272-2.662,2.673-3.981,4.021c0.04,0.135,0.08,0.27,0.119,0.404c20.12-1.595,40.239-3.189,60.575-4.802
		c-0.296,1.025-0.503,1.889-0.795,2.724c-2.405,6.876-5.211,13.567-8.886,19.886c-0.703,1.208-1.476,1.491-2.727,1.48
		c-17.639-0.151-35.277-0.271-52.916-0.391c-4.351-0.029-8.702-0.057-13.052-0.004c-0.625,0.008-1.374,0.334-1.842,0.759
		c-1.244,1.126-2.365,2.388-3.535,3.596c0.044,0.132,0.088,0.264,0.132,0.396c23.136,0.171,46.271,0.344,69.407,0.516
		C400.524,329.993,400.623,330.138,400.722,330.283z"/>
	<path fill-rule="evenodd" clip-rule="evenodd" fill="#FFFFFF" d="M327.318,307.636c-0.096-0.68-0.175-1.012-0.185-1.346
		c-0.217-7.43-0.421-14.857-0.638-22.287c-0.313-10.746-0.659-21.491-0.917-32.238c-0.028-1.174,0.349-2.386,0.711-3.525
		c0.16-0.504,0.687-0.968,1.157-1.285c5.643-3.802,11.858-6.432,18.184-8.836c1.056-0.4,1.225,0.148,1.224,1.02
		c-0.008,4.348,0.013,8.696,0.004,13.044c-0.012,6.163,0.013,12.325-0.08,18.486c-0.077,5.172-0.25,10.343-0.482,15.511
		c-0.096,2.133-1.215,3.85-2.733,5.328c-1.662,1.617-3.215,3.35-4.925,4.913c-1.81,1.655-3.398,3.501-5.56,4.853
		c-1.917,1.201-4.019,2.59-4.763,5.08C328.199,306.741,327.792,307.042,327.318,307.636z"/>
	<path fill-rule="evenodd" clip-rule="evenodd" fill="#FFFFFF" d="M320.082,268.341c0,3.124,0.068,6.249-0.016,9.37
		c-0.126,4.733-0.393,9.463-0.525,14.196c-0.042,1.493,0.273,2.999,0.214,4.49c-0.112,2.839-0.412,5.67-0.56,8.508
		c-0.072,1.373-0.19,2.798,0.076,4.127c0.933,4.648-0.971,8.056-4.501,10.762c-1.206,0.925-2.582,1.637-3.926,2.358
		c-0.197,0.105-0.815-0.188-0.968-0.454c-0.771-1.331-1.499-2.692-2.157-4.083c-3.091-6.534-5.461-13.313-6.355-20.513
		c-1.833-14.756,1.688-27.927,11.933-38.998c1.5-1.622,3.14-3.12,4.781-4.603c1.006-0.909,1.495-0.776,1.782,0.534
		c0.258,1.18,0.297,2.421,0.311,3.636c0.037,3.556,0.013,7.112,0.013,10.669C320.148,268.341,320.115,268.341,320.082,268.341z"/>
	<path fill-rule="evenodd" clip-rule="evenodd" fill="#FFFFFF" d="M379.75,235.793c-0.128,3.185-0.276,6.367-0.376,9.553
		c-0.05,1.577-0.017,3.157-0.011,4.735c0.001,0.314-0.051,0.691,0.097,0.931c0.501,0.815,0.644,1.458,0.037,2.402
		c-0.478,0.742-0.734,1.522-1.688,1.793c-0.221,0.062-0.404,0.361-0.543,0.588c-0.797,1.303-1.464,2.704-2.398,3.897
		c-0.703,0.896-1.755,1.516-2.628,2.287c-2.032,1.794-3.991,3.677-6.094,5.383c-1.264,1.026-2.665,1.974-4.152,2.607
		c-1.173,0.5-1.623,1.23-2.073,2.316c-0.556,1.345-1.416,2.581-2.255,3.785c-0.712,1.022-1.563,1.953-2.396,2.885
		c-0.308,0.344-0.741,0.576-1.117,0.858c-0.143-0.419-0.413-0.839-0.41-1.257c0.034-4.773,0.14-9.546,0.166-14.32
		c0.034-6.356-0.011-12.714,0.029-19.07c0.018-2.804,0.192-5.605,0.231-8.409c0.014-0.991,0.4-1.53,1.352-1.763
		c4.673-1.141,9.329-2.352,14.014-3.436c2.608-0.604,5.262-1.008,7.895-1.506c1.714-0.326,1.877-0.173,1.943,1.597
		c0.051,1.38,0.177,2.758,0.27,4.136C379.678,235.788,379.714,235.79,379.75,235.793z"/>
	<path fill-rule="evenodd" clip-rule="evenodd" fill="#FFFFFF" d="M388.409,246.123c-0.342-1.154-0.902-2.292-0.985-3.464
		c-0.266-3.739-0.403-7.49-0.495-11.238c-0.057-2.309,0.645-3.015,2.929-3.233c4.676-0.45,9.354-0.88,14.033-1.311
		c0.353-0.032,0.74-0.099,1.06,0.006c0.407,0.134,0.972,0.353,1.082,0.669c0.118,0.339-0.097,0.941-0.372,1.241
		c-1.21,1.323-2.459,2.617-3.765,3.847c-0.856,0.807-1.926,1.396-2.741,2.237c-2.659,2.747-5.269,5.542-7.845,8.366
		c-0.852,0.935-1.542,2.016-2.306,3.031C388.806,246.224,388.607,246.173,388.409,246.123z"/>
	<path fill-rule="evenodd" clip-rule="evenodd" fill="#FFFFFF" d="M323.877,392.429c0.392,0.242,1,0.396,1.145,0.741
		c2.781,6.644,4.355,13.499,3.483,20.763c-0.324,2.699,0.227,2.486-2.904,2.46c-0.304-0.003-0.608-0.062-1.026-0.107
		c1.377-8.15-0.155-15.828-3.346-23.386c0.959-0.176,1.821-0.334,2.685-0.493C323.915,392.405,323.877,392.429,323.877,392.429z"/>
</g>
</svg>
